<svg width="25" height="25" viewBox="0 0 25 25" fill="none" xmlns="http://www.w3.org/2000/svg">
<g opacity="0.8">
<path d="M11.6431 11C11.6431 10.8011 11.564 10.6103 11.4234 10.4697C11.2827 10.329 11.092 10.25 10.8931 10.25H7.39306C7.19415 10.25 7.00338 10.329 6.86273 10.4697C6.72208 10.6103 6.64306 10.8011 6.64306 11C6.64306 11.1989 6.72208 11.3897 6.86273 11.5303C7.00338 11.671 7.19415 11.75 7.39306 11.75H10.8931C11.092 11.75 11.2827 11.671 11.4234 11.5303C11.564 11.3897 11.6431 11.1989 11.6431 11ZM10.8931 15.75C11.092 15.75 11.2827 15.829 11.4234 15.9697C11.564 16.1103 11.6431 16.3011 11.6431 16.5C11.6431 16.6989 11.564 16.8897 11.4234 17.0303C11.2827 17.171 11.092 17.25 10.8931 17.25H7.39306C7.19415 17.25 7.00338 17.171 6.86273 17.0303C6.72208 16.8897 6.64306 16.6989 6.64306 16.5C6.64306 16.3011 6.72208 16.1103 6.86273 15.9697C7.00338 15.829 7.19415 15.75 7.39306 15.75H10.8931ZM13.3631 10.53C13.2894 10.4613 13.2303 10.3785 13.1893 10.2865C13.1483 10.1945 13.1262 10.0952 13.1245 9.99452C13.1227 9.89382 13.1412 9.79379 13.1789 9.7004C13.2167 9.60702 13.2728 9.52218 13.344 9.45096C13.4152 9.37974 13.5001 9.3236 13.5935 9.28588C13.6869 9.24816 13.7869 9.22963 13.8876 9.23141C13.9883 9.23319 14.0876 9.25523 14.1796 9.29622C14.2716 9.33721 14.3544 9.39631 14.4231 9.47L15.8931 10.94L16.3631 10.47C16.5052 10.3375 16.6933 10.2654 16.8876 10.2688C17.0819 10.2723 17.2673 10.351 17.4047 10.4884C17.5421 10.6258 17.6208 10.8112 17.6242 11.0055C17.6277 11.1998 17.5555 11.3878 17.4231 11.53L16.4231 12.53C16.2824 12.6705 16.0918 12.7493 15.8931 12.7493C15.6943 12.7493 15.5037 12.6705 15.3631 12.53L13.3631 10.53ZM13.3631 14.97C13.2226 15.1106 13.1437 15.3013 13.1437 15.5C13.1437 15.6988 13.2226 15.8894 13.3631 16.03L15.3631 18.03C15.5037 18.1705 15.6943 18.2493 15.8931 18.2493C16.0918 18.2493 16.2824 18.1705 16.4231 18.03L17.4231 17.03C17.4968 16.9613 17.5559 16.8785 17.5968 16.7865C17.6378 16.6945 17.6599 16.5952 17.6617 16.4945C17.6634 16.3938 17.6449 16.2938 17.6072 16.2004C17.5695 16.107 17.5133 16.0222 17.4421 15.951C17.3709 15.8797 17.2861 15.8236 17.1927 15.7859C17.0993 15.7482 16.9992 15.7296 16.8985 15.7314C16.7978 15.7332 16.6985 15.7552 16.6065 15.7962C16.5145 15.8372 16.4317 15.8963 16.3631 15.97L15.8931 16.44L14.4231 14.97C14.2824 14.8296 14.0918 14.7507 13.8931 14.7507C13.6943 14.7507 13.5037 14.8296 13.3631 14.97ZM8.14906 4.834C8.19097 4.26752 8.44558 3.73786 8.8618 3.35132C9.27802 2.96478 9.82504 2.74997 10.3931 2.75H13.8931C14.4465 2.75002 14.9805 2.95401 15.393 3.32297C15.8055 3.69194 16.0676 4.19999 16.1291 4.75H17.8931C18.4898 4.75 19.0621 4.98705 19.4841 5.40901C19.906 5.83097 20.1431 6.40326 20.1431 7V20.5C20.1431 21.0967 19.906 21.669 19.4841 22.091C19.0621 22.5129 18.4898 22.75 17.8931 22.75H6.39306C6.09759 22.75 5.80501 22.6918 5.53202 22.5787C5.25904 22.4657 5.011 22.2999 4.80207 22.091C4.59314 21.8821 4.4274 21.634 4.31433 21.361C4.20126 21.0881 4.14306 20.7955 4.14306 20.5V7C4.14306 6.70453 4.20126 6.41195 4.31433 6.13896C4.4274 5.86598 4.59314 5.61794 4.80207 5.40901C5.011 5.20008 5.25904 5.03434 5.53202 4.92127C5.80501 4.8082 6.09759 4.75 6.39306 4.75H8.15706L8.14906 4.834ZM8.14906 4.846L8.14306 5C8.14306 4.948 8.14506 4.897 8.14806 4.846H8.14906ZM13.8931 7.25H10.3931C9.61306 7.25 8.92606 6.853 8.52206 6.25H6.39306C6.19415 6.25 6.00338 6.32902 5.86273 6.46967C5.72208 6.61032 5.64306 6.80109 5.64306 7V20.5C5.64306 20.6989 5.72208 20.8897 5.86273 21.0303C6.00338 21.171 6.19415 21.25 6.39306 21.25H17.8931C18.092 21.25 18.2827 21.171 18.4234 21.0303C18.564 20.8897 18.6431 20.6989 18.6431 20.5V7C18.6431 6.80109 18.564 6.61032 18.4234 6.46967C18.2827 6.32902 18.092 6.25 17.8931 6.25H15.7641C15.3601 6.853 14.6731 7.25 13.8931 7.25ZM13.8931 4.25H10.3931C10.1942 4.25 10.0034 4.32902 9.86273 4.46967C9.72208 4.61032 9.64306 4.80109 9.64306 5C9.64306 5.19891 9.72208 5.38968 9.86273 5.53033C10.0034 5.67098 10.1942 5.75 10.3931 5.75H13.8931C14.092 5.75 14.2827 5.67098 14.4234 5.53033C14.564 5.38968 14.6431 5.19891 14.6431 5C14.6431 4.80109 14.564 4.61032 14.4234 4.46967C14.2827 4.32902 14.092 4.25 13.8931 4.25Z" fill="#F5F7FB"/>
</g>
</svg>
